<svg width="516" height="119" viewBox="0 0 516 119" fill="none" xmlns="http://www.w3.org/2000/svg">
<g clip-path="url(#clip0_10_29)">
<mask id="mask0_10_29" style="mask-type:luminance" maskUnits="userSpaceOnUse" x="0" y="0" width="516" height="119">
<path d="M515.45 0H0V118.66H515.45V0Z" fill="white"/>
</mask>
<g mask="url(#mask0_10_29)">
<path d="M150.892 79.9043C151.657 79.9043 152.074 80.3228 152.074 81.0191V85.0573C152.074 86.7979 150.891 87.772 149.22 87.772H112.667C112.04 87.772 111.553 87.3549 111.553 86.6587V85.2662L111.831 84.8485L139.612 39.8712H113.015C112.318 39.8712 111.761 39.4535 111.761 38.7572V33.2576C111.761 32.5606 112.249 32.0732 113.015 32.0732H150.751C151.448 32.0732 151.936 32.491 151.936 33.1872V34.3702L151.796 34.5791L123.946 79.9055L150.892 79.9043ZM175.123 88.2595C184.87 88.2595 192.947 80.5318 192.947 70.5755C192.947 60.4101 184.87 52.8212 175.123 52.8212C165.375 52.8212 157.298 60.4105 157.298 70.5755C157.298 80.5318 165.375 88.2595 175.123 88.2595ZM175.123 81.1585C169.135 81.1585 164.679 76.215 164.679 70.6452C164.679 64.8662 169.134 59.9228 175.123 59.9228C181.111 59.9228 185.566 64.8662 185.566 70.6452C185.566 76.215 181.111 81.1585 175.123 81.1585ZM208.056 32.0734H202.694C201.998 32.0734 201.58 32.5607 201.58 33.1874V84.9878C201.58 86.5892 202.555 87.7721 204.296 87.7721H208.056C208.752 87.7721 209.17 87.3551 209.17 86.5892V33.1867C209.17 32.5601 208.683 32.0734 208.056 32.0734ZM246.419 73.3597C248.925 73.3597 250.665 72.1064 250.665 69.1823C250.665 60.6186 244.051 52.8202 233.886 52.8202C224.208 52.8202 216.619 60.479 216.619 70.5051C216.619 80.9482 224.556 88.1197 234.303 88.1197C240.5 88.1197 245.374 85.6132 248.368 81.575C248.786 81.018 248.647 80.6003 248.23 80.0433L246.907 78.3026C246.35 77.607 245.793 77.676 245.096 78.0938C242.869 79.904 239.179 81.4365 235.14 81.4365C229.431 81.4365 225.392 77.9552 224.627 73.36L246.419 73.3597ZM224.626 67.4414C224.905 64.0994 228.038 59.7827 233.747 59.7827C239.526 59.7827 242.52 64.1691 242.728 67.4414H224.626ZM256.584 82.7597L258.95 79.0007C259.438 78.2341 259.856 78.0252 260.552 78.3734C260.621 78.5126 264.868 81.0191 269.533 81.0191C273.572 81.0191 274.964 79.4178 274.964 77.8164C274.964 75.4491 272.388 74.6143 267.723 73.4308C261.108 71.6902 256.722 68.2787 256.722 62.9869C256.722 57.765 261.178 52.8914 269.533 52.8914C274.616 52.8914 278.097 54.632 280.882 56.2334C281.578 56.6511 281.926 57.2778 281.508 57.8348L278.932 61.8034C278.584 62.3604 278.027 62.5693 277.4 62.3604C275.59 61.4559 272.666 60.1324 269.533 60.1324C265.634 60.1324 264.589 62.0819 264.589 63.2655C264.589 65.2847 267.513 66.2594 271.064 67.2334C277.262 68.9044 283.458 71.8984 283.458 77.9558C283.458 83.8042 277.889 88.2597 269.533 88.2597C263.824 88.2597 258.672 85.4753 256.931 84.0828C256.444 83.8043 256.305 83.1078 256.584 82.7597ZM332.336 32.0734C344.451 32.0734 351.414 42.3082 351.414 50.733C351.414 59.6451 344.451 69.5319 332.336 69.5319H318.481V86.5899C318.481 87.3558 318.064 87.7729 317.367 87.7729H311.727C311.031 87.7729 310.613 87.3558 310.613 86.5899V33.1874C310.613 32.5608 311.031 32.0734 311.727 32.0734H332.336ZM331.711 61.9418C339.37 61.9418 343.617 56.3021 343.617 50.7322C343.617 45.2317 339.37 39.6618 331.711 39.6618H318.482V61.9418H331.711ZM389.36 53.3078C389.986 53.3078 390.404 53.7959 390.404 54.4922V86.659C390.404 87.2849 389.986 87.7723 389.429 87.7723H385.113C383.929 87.7723 382.954 86.0324 382.885 84.8488V84.0829C380.169 86.1716 376.479 88.1901 371.745 88.1901C364.573 88.1901 357.402 83.6652 357.402 74.9619V59.5745C357.402 57.6946 357.263 56.2325 357.054 54.7704C356.915 54.0045 357.123 53.3082 357.75 53.3082H362.276C364.016 53.3082 364.991 54.4919 364.991 56.0933V74.2653C364.991 78.8604 368.124 81.4369 372.789 81.4369C376.758 81.4369 380.03 79.2089 382.885 76.3542V54.492C382.885 53.7958 383.302 53.3077 383.928 53.3077L389.36 53.3078ZM431.343 86.3107C431.482 87.0766 431.274 87.7722 430.648 87.7722H426.123C424.312 87.7722 423.407 86.5892 423.407 84.9879V66.8852C423.407 62.2901 420.205 59.6442 415.609 59.6442C411.641 59.6442 408.298 61.5241 405.514 64.2393V86.6593C405.514 87.2853 405.027 87.7727 404.4 87.7727H398.969C398.343 87.7727 397.925 87.2853 397.925 86.6593V54.4223C397.925 53.7963 398.343 53.3083 398.969 53.3083H402.728C404.399 53.3083 405.444 55.0489 405.513 56.3022V56.9984C408.229 54.909 411.849 52.8203 416.583 52.8203C423.755 52.8203 430.926 57.3467 430.926 66.0497V81.5065C430.995 83.456 431.134 84.9182 431.343 86.3107ZM471.238 85.4752C472.143 86.45 471.725 87.7046 470.402 87.7046H464.762C464.136 87.7046 463.787 87.5654 463.37 87.078L446.799 70.5072V86.6603C446.799 87.2862 446.312 87.7736 445.685 87.7736H440.394C439.697 87.7736 439.21 87.2862 439.21 86.6603V37.99C439.21 35.6228 438.862 34.5784 438.653 33.5342C438.514 32.7676 438.723 32.0714 439.42 32.0714H444.154C445.755 32.0714 446.8 33.1158 446.8 34.5779V68.6245L460.794 53.864C461.212 53.4463 461.63 53.307 462.117 53.307H467.687C468.801 53.307 469.428 54.6995 468.592 55.6046L454.876 69.5994L471.238 85.4752ZM499.785 85.5449C499.993 86.1019 499.576 86.4486 499.089 86.7968C497.905 87.5626 495.329 88.1196 492.753 88.1196C485.303 88.1196 482.588 84.2902 482.588 75.3088V60.6177H478.48C477.853 60.6177 477.366 60.2 477.366 59.5037V58.3201C477.366 57.7631 477.505 57.346 477.923 56.9276C481.961 53.6552 485.164 50.2445 487.949 43.2114C488.158 42.724 488.367 42.4455 488.715 42.4455H489.481C490.038 42.4455 490.246 42.724 490.246 43.3506V53.3069H497.557C498.184 53.3069 498.741 53.7949 498.741 54.4912V59.5041C498.741 60.1307 498.184 60.6181 497.557 60.6181H491.5C490.943 60.6181 490.455 60.5485 490.177 60.4092V74.6127C490.177 78.6509 490.664 80.9487 494.076 80.9487C495.538 80.9487 496.513 80.7398 497.348 80.5309C498.184 80.3221 498.741 80.6702 498.88 81.4368L499.785 85.5449ZM511.273 40.4986C508.976 40.4986 507.096 38.6884 507.096 36.3213C507.096 34.0237 508.976 32.144 511.273 32.144C513.57 32.144 515.45 34.0239 515.45 36.3213C515.45 38.6886 513.57 40.4986 511.273 40.4986ZM513.988 53.3078H508.627C507.931 53.3078 507.513 53.7959 507.513 54.4219V84.9874C507.513 86.5888 508.488 87.7717 510.159 87.7717H514.058C514.684 87.7717 515.102 87.3546 515.102 86.5888V54.422C515.102 53.796 514.615 53.3078 513.988 53.3078Z" fill="#111111"/>
<path d="M66.0099 0H18.1401C8.31422 0 0 8.06183 0 18.1391V100.521C0 110.346 8.06228 118.66 18.1401 118.66H66.0099C75.8358 118.66 84.15 110.598 84.15 100.521V18.1391C83.8981 8.06183 75.8358 0 66.0099 0ZM42.075 90.9475H30.4855C30.4855 90.9475 39.8075 86.9166 42.075 76.5873C44.3425 86.9166 53.6645 90.9475 53.6645 90.9475H42.075ZM54.4204 74.8238C49.1295 74.8238 44.5945 72.0526 42.075 68.0217C39.5555 72.0526 34.7686 74.8238 29.7296 74.8238C21.6674 74.8238 15.1168 68.2736 15.1168 60.2118C15.1168 46.6074 31.4933 46.6074 42.3269 27.4606C52.9087 45.5997 69.5371 47.8671 69.5371 60.2118C69.2852 68.2736 62.7346 74.8238 54.4204 74.8238Z" fill="black"/>
</g>
<path d="M66.0099 0H18.1401C8.31422 0 0 8.06183 0 18.1391V100.521C0 110.346 8.06228 118.66 18.1401 118.66H66.0099C75.8358 118.66 84.15 110.598 84.15 100.521V18.1391C83.8981 8.06183 75.8358 0 66.0099 0ZM42.075 90.9475H30.4855C30.4855 90.9475 39.8075 86.9166 42.075 76.5873C44.3425 86.9166 53.6645 90.9475 53.6645 90.9475H42.075ZM54.4204 74.8238C49.1295 74.8238 44.5945 72.0526 42.075 68.0217C39.5555 72.0526 34.7686 74.8238 29.7296 74.8238C21.6674 74.8238 15.1168 68.2736 15.1168 60.2118C15.1168 46.6074 31.4933 46.6074 42.3269 27.4606C52.9087 45.5997 69.5371 47.8671 69.5371 60.2118C69.2852 68.2736 62.7346 74.8238 54.4204 74.8238Z" fill="black"/>
<path d="M10.1726 25V23.7564L16.6744 14.2422H10.1183V12.6364H18.9564V13.88L12.4546 23.3942H19.0107V25H10.1726ZM21.35 25V12.6364H25.757C26.7189 12.6364 27.5157 12.8114 28.1476 13.1616C28.7795 13.5117 29.2524 13.9906 29.5663 14.5984C29.8802 15.2021 30.0372 15.8822 30.0372 16.6388C30.0372 17.3995 29.8782 18.0837 29.5602 18.6914C29.2463 19.2951 28.7714 19.774 28.1355 20.1282C27.5037 20.4783 26.7088 20.6534 25.7509 20.6534H22.7204V19.0717H25.5819C26.1896 19.0717 26.6826 18.9671 27.0609 18.7578C27.4393 18.5445 27.717 18.2547 27.894 17.8885C28.0711 17.5223 28.1597 17.1057 28.1597 16.6388C28.1597 16.172 28.0711 15.7575 27.894 15.3952C27.717 15.033 27.4372 14.7493 27.0549 14.544C26.6766 14.3388 26.1775 14.2362 25.5578 14.2362H23.2154V25H21.35Z" fill="white"/>
</g>
<defs>
<clipPath id="clip0_10_29">
<rect width="516" height="119" fill="white"/>
</clipPath>
</defs>
</svg>
