<svg width="714" height="1012" viewBox="0 0 714 1012" fill="none" xmlns="http://www.w3.org/2000/svg">
<path d="M30.1 0H683.9C698.9 0 711 12.2 711 27.2V981.4C711 996.4 698.9 1008.6 683.9 1008.6H30.1C15.1 1008.6 3 996.4 3 981.4V27.2C3 12.2 15.2 0 30.1 0Z" stroke="url(#paint0_linear_31_4)" stroke-width="5" stroke-miterlimit="4.3"/>
<path d="M41.1 185C41.1 183.3 41 182.1 41 180.4C44.5 180.4 48.3 180.4 51.8 180.4C51.8 176.4 51.8 176.1 51.8 172.1C45 172.3 37.6 172.8 31.2 170C26.3 167.3 24.9 161 25.9 155.8C26.8 149.9 30 144.8 34.2 140.8C39.7 134.9 46.8 130.9 54.1 127.7C61.6 131 68.8 135.1 74.4 141.1C79.4 145.8 82.8 152.5 82.7 159.5C82.8 164.6 79.7 169.9 74.5 171C68.7 172.6 62.9 172.3 56.9 172.1C56.9 176.1 56.9 176.4 56.9 180.4C60.4 180.4 63.6 180.4 67.1 180.4C67.1 182.1 67.2 183.3 67.2 185C59.2 185 49.7 185 41.1 185Z" fill="#6D28D9" stroke="#6D28D9" stroke-miterlimit="4.3"/>
<path d="M646.9 823.4C646.9 825.1 646.8 826.3 646.8 828C650.3 828 654.1 828 657.6 828C657.6 832 657.6 832.3 657.6 836.3C650.8 836.1 643.4 835.6 637 838.4C632.1 841.1 630.7 847.4 631.7 852.6C632.6 858.5 635.8 863.6 640 867.6C645.5 873.5 652.6 877.5 659.9 880.7C667.4 877.4 674.6 873.3 680.2 867.3C685.2 862.6 688.6 855.9 688.5 848.9C688.6 843.8 685.5 838.5 680.3 837.4C674.5 835.8 668.7 836.1 662.7 836.3C662.7 832.3 662.7 832 662.7 828C666.2 828 669.4 828 672.9 828C672.9 826.3 673 825.1 673 823.4C665.1 823.5 655.5 823.5 646.9 823.4Z" fill="#6D28D9" stroke="#6D28D9" stroke-miterlimit="4.3"/>
<path d="M317.4 552.7C317.4 547.2 317.4 543 317.4 537.4C328 537.4 338.2 537.4 348.8 537.4C348.8 524.2 348.8 523.4 348.8 510.2C328.2 510.9 307.2 512.7 287.9 503.5C272.9 494.6 268.8 473.9 271.8 456.9C274.4 437.7 284.2 420.7 297.1 407.5C313.8 388.1 335.1 375 357.4 364.5C380.1 375.2 401.9 388.7 418.8 408.6C434.1 424.1 444.2 446.1 443.9 469.1C444.2 485.7 434.7 503.2 419.1 506.8C401.6 512.1 384 511.1 366 510.3C366 523.5 366 524.2 366 537.4C376.6 537.4 386.8 537.4 397.4 537.4C397.4 542.9 397.4 547.1 397.4 552.7C373.3 552.5 317.4 552.7 317.4 552.7Z" fill="#6D28D9" stroke="#6D28D9" stroke-miterlimit="4.3"/>
<path d="M82.6999 108.579H70.9518L66.3048 90.8665H42.1037L37.274 108.579H25.5259L48.3955 22.5531H59.8564L82.6999 108.579ZM62.1016 74.8952L54.2434 45.3747L46.3331 74.8952H62.1016Z" fill="#6D28D9" stroke="#6D28D9" stroke-width="0.314334" stroke-miterlimit="4.3"/>
<path d="M631.362 899.879H643.11L647.757 917.591H671.958L676.788 899.879H688.536L665.667 985.904H654.206L631.362 899.879ZM651.987 933.562L659.845 963.083L667.755 933.562H651.987Z" fill="#6D28D9" stroke="#6D28D9" stroke-width="0.314334" stroke-miterlimit="4.3"/>
<path d="M148.4 628H91.5999L94.8999 611.9H167.8V628L120.5 661.5L104.1 665H160.9L157.6 681.1H84.7V665L132 631.5L148.4 628Z" fill="url(#paint1_linear_31_4)"/>
<path d="M242.9 611.9C244.7 611.9 246.3 612.3 247.9 613C249.4 613.8 250.8 614.8 251.8 616.1C252.9 617.4 253.6 618.9 254.1 620.5C254.6 622.1 254.6 623.9 254.2 625.6L245 671.8C244.5 674.6 243.1 676.8 241 678.5C238.9 680.2 236.4 681.1 233.6 681.1H183.3C181.5 681.1 179.8 680.7 178.2 680C176.6 679.2 175.4 678.2 174.3 676.9C173.3 675.6 172.5 674.1 172.1 672.4C171.6 670.7 171.6 669 171.9 667.2L181.2 621.1C181.7 618.3 183 616.1 185.2 614.4C187.3 612.7 189.8 611.8 192.5 611.8L242.9 611.9ZM194.3 664.1C194.8 664.7 195.4 665 196.1 665H223.7C224.9 665 225.6 664.4 226 663.1L232.4 630.7C232.5 630 232.4 629.3 231.9 628.8C231.4 628.2 230.8 628 230.1 628H202.5C202 628 201.5 628.2 201.1 628.5C200.7 628.9 200.4 629.3 200.3 629.8L193.9 662.2C193.7 663 193.8 663.6 194.3 664.1Z" fill="url(#paint2_linear_31_4)"/>
<path d="M272.3 611.9H295.4L284.7 665H327.6L324.3 681.1H258.3L272.3 611.9Z" fill="url(#paint3_linear_31_4)"/>
<path d="M398.1 654.6H361.2L359.1 665H402.9L399.6 681.1H335L348.9 611.8H413.5L410.3 627.9H366.4L364.3 638.3H401.3L398.1 654.6Z" fill="url(#paint4_linear_31_4)"/>
<path d="M413 665.9L414.1 660.4H434.9L434.5 662.3C434.4 663 434.5 663.7 435 664.2C435.5 664.8 436.1 665 436.8 665H461.6C462.1 665 462.6 664.8 463 664.5C463.4 664.1 463.7 663.7 463.8 663.2L465.2 656.3C465.3 655.6 465.2 654.9 464.7 654.4C464.2 653.8 463.6 653.6 462.9 653.6H430.8C428.8 653.6 427 653.2 425.3 652.3C423.6 651.4 422.2 650.3 421 648.9C419.9 647.5 419.1 645.9 418.6 644.1C418.1 642.3 418.1 640.3 418.5 638.4L421.7 622.3C422.3 619.3 423.8 616.9 426.1 615C428.4 613.1 431.1 612.1 434.2 612.1H479.9C481.9 612.1 483.7 612.5 485.4 613.4C487.1 614.3 488.5 615.4 489.7 616.8C490.8 618.2 491.6 619.8 492.2 621.6C492.7 623.4 492.8 625.3 492.4 627.3L491.2 632.9H470.4L470.8 631C470.9 630.3 470.8 629.6 470.3 629.1C469.8 628.5 469.2 628.3 468.5 628.3H443.2C442 628.3 441.3 628.9 440.9 630.2L439.8 635.9C439.7 636.6 439.8 637.3 440.3 637.8C440.8 638.4 441.4 638.6 442.1 638.6H468.3C470.3 638.6 471.9 638.6 473.1 638.6L475 638.7C476.9 638.8 478.6 639.3 480.2 640.2C481.7 641.1 483.1 642.2 484.1 643.6C485.2 645 485.9 646.6 486.4 648.3C486.9 650 486.9 651.9 486.5 653.8L483 671.1C482.4 674.1 480.9 676.5 478.6 678.4C476.3 680.3 473.6 681.3 470.5 681.3H425.3C423.3 681.3 421.5 680.9 419.8 680C418.1 679.1 416.7 678 415.5 676.6C414.4 675.2 413.6 673.6 413.1 671.8C412.6 669.8 412.6 667.9 413 665.9Z" fill="url(#paint5_linear_31_4)"/>
<path d="M223.1 757.7H172.6L168.7 777.3H146.7L160.6 708H230.2C231.8 708 233.3 708.3 234.6 709C236 709.7 237.1 710.6 238 711.7C238.9 712.9 239.6 714.2 240 715.6C240.4 717.1 240.5 718.6 240.1 720.2L234.5 748.4C234 751.1 232.6 753.3 230.5 755.1C228.4 756.8 225.9 757.7 223.1 757.7ZM175.9 741.5H213.3C213.8 741.5 214.3 741.3 214.7 741C215.1 740.7 215.4 740.2 215.5 739.7L218.1 726.9C218.2 726.2 218.1 725.5 217.6 725C217.1 724.4 216.5 724.2 215.8 724.2H167.1L178.7 727.7L175.9 741.5Z" fill="url(#paint6_linear_31_4)"/>
<path d="M266.4 758.4C266.3 759.1 266.4 759.8 266.9 760.3C267.4 760.9 268 761.1 268.7 761.1H293.9C294.4 761.1 294.9 760.9 295.3 760.6C295.7 760.2 296 759.8 296.1 759.3L306.4 708.1H327.2L315.2 768.1C314.7 770.9 313.3 773.1 311.2 774.8C309.1 776.5 306.6 777.4 303.8 777.4H255.8C254 777.4 252.3 777 250.7 776.3C249.1 775.5 247.9 774.5 246.8 773.2C245.8 771.9 245 770.4 244.6 768.7C244.1 767 244.1 765.3 244.4 763.5L255.6 708H276.4L266.4 758.4Z" fill="url(#paint7_linear_31_4)"/>
<path d="M423.5 708L409.6 777.3H373.9L362.9 722.5L351.9 777.3H331.1L345 708H380.8L391.8 762.8L402.7 708H423.5Z" fill="#6D28D9"/>
<path d="M477.9 736.8L504.9 777.3H480.7L461.9 749.2L452.5 756.4L448.3 777.3H427.5L441.4 708H462.2L457.3 732.8L491.1 708H515.3L477.9 736.8Z" fill="url(#paint8_linear_31_4)"/>
<path d="M519.3 724.2L522.6 708.1H593.2L589.9 724.2H566.8L556.1 777.3H533L543.6 724.2H519.3Z" fill="url(#paint9_linear_31_4)"/>
<path d="M593.7 777.3L607.6 708H628.4L614.5 777.3H593.7Z" fill="#6D28D9"/>
<defs>
<linearGradient id="paint0_linear_31_4" x1="0.5" y1="504.3" x2="713.5" y2="504.3" gradientUnits="userSpaceOnUse">
<stop offset="1" stop-color="#6D28D9"/>
</linearGradient>
<linearGradient id="paint1_linear_31_4" x1="84.7" y1="646.5" x2="167.8" y2="646.5" gradientUnits="userSpaceOnUse">
<stop stop-color="#6D28D9"/>
</linearGradient>
<linearGradient id="paint2_linear_31_4" x1="171.695" y1="646.45" x2="254.392" y2="646.45" gradientUnits="userSpaceOnUse">
<stop offset="1" stop-color="#6D28D9"/>
</linearGradient>
<linearGradient id="paint3_linear_31_4" x1="258.412" y1="646.5" x2="327.712" y2="646.5" gradientUnits="userSpaceOnUse">
<stop offset="1" stop-color="#6D28D9"/>
</linearGradient>
<linearGradient id="paint4_linear_31_4" x1="335.086" y1="646.45" x2="413.586" y2="646.45" gradientUnits="userSpaceOnUse">
<stop stop-color="#6D28D9"/>
</linearGradient>
<linearGradient id="paint5_linear_31_4" x1="412.711" y1="646.7" x2="492.647" y2="646.7" gradientUnits="userSpaceOnUse">
<stop offset="0.8737" stop-color="#6D28D9"/>
<stop offset="0.9356" stop-color="#6D28D9"/>
<stop offset="1" stop-color="#6D28D9"/>
</linearGradient>
<linearGradient id="paint6_linear_31_4" x1="146.7" y1="742.65" x2="240.355" y2="742.65" gradientUnits="userSpaceOnUse">
<stop offset="1" stop-color="#6D28D9"/>
</linearGradient>
<linearGradient id="paint7_linear_31_4" x1="244.306" y1="742.7" x2="327.224" y2="742.7" gradientUnits="userSpaceOnUse">
<stop offset="1" stop-color="#6D28D9"/>
</linearGradient>
<linearGradient id="paint8_linear_31_4" x1="427.5" y1="742.65" x2="515.3" y2="742.65" gradientUnits="userSpaceOnUse">
<stop offset="1" stop-color="#6D28D9"/>
</linearGradient>
<linearGradient id="paint9_linear_31_4" x1="519.3" y1="742.7" x2="593.2" y2="742.7" gradientUnits="userSpaceOnUse">
<stop offset="1" stop-color="#6D28D9"/>
</linearGradient>
</defs>
</svg>
